<?xml version="1.0" standalone="no"?>
<!DOCTYPE svg PUBLIC "-//W3C//DTD SVG 20010904//EN"
 "http://www.w3.org/TR/2001/REC-SVG-20010904/DTD/svg10.dtd">
<svg version="1.0" xmlns="http://www.w3.org/2000/svg"
 width="303.000000pt" height="303.000000pt" viewBox="0 0 303.000000 303.000000"
 preserveAspectRatio="xMidYMid meet">
<metadata>
Created by potrace 1.14, written by Peter Selinger 2001-2017
</metadata>
<g transform="translate(0.000000,303.000000) scale(0.100000,-0.100000)"
fill="#000000" stroke="none">
<path d="M1437 2984 c-1 -1 -31 -5 -67 -8 -36 -3 -87 -10 -115 -16 -27 -6 -61
-13 -75 -16 -14 -2 -34 -8 -45 -11 -11 -4 -26 -8 -32 -9 -25 -4 -158 -57 -181
-71 -12 -7 -27 -11 -32 -8 -6 3 -10 2 -10 -3 0 -6 -12 -15 -27 -21 -34 -13
-112 -58 -134 -77 -8 -8 -19 -14 -23 -14 -4 0 -13 -6 -21 -12 -29 -28 -56 -48
-64 -48 -5 0 -12 -7 -15 -16 -3 -8 -10 -13 -15 -9 -5 3 -13 -4 -16 -16 -4 -11
-9 -18 -12 -15 -7 7 -139 -129 -164 -169 -10 -16 -19 -25 -19 -20 0 6 -12 -9
-26 -32 -14 -24 -30 -43 -36 -43 -6 0 -9 -3 -5 -6 3 -4 -5 -21 -18 -39 -14
-17 -25 -37 -25 -43 0 -6 -3 -12 -7 -14 -5 -1 -19 -25 -33 -53 -14 -27 -27
-52 -30 -55 -3 -3 -6 -9 -7 -15 -1 -5 -13 -36 -27 -67 -14 -32 -23 -58 -20
-58 4 0 1 -7 -6 -15 -6 -8 -9 -19 -6 -24 4 -5 2 -12 -3 -15 -5 -4 -15 -32 -22
-64 -15 -68 -16 -71 -18 -74 -1 -2 -4 -16 -6 -33 -3 -16 -9 -59 -14 -95 -14
-103 0 -455 19 -455 2 0 10 -37 12 -62 1 -13 5 -23 8 -23 3 0 6 -9 7 -20 2
-27 52 -170 69 -198 8 -12 12 -22 10 -22 -3 0 11 -27 30 -61 18 -33 34 -63 34
-66 0 -8 84 -128 92 -131 4 -2 8 -10 8 -17 0 -7 7 -15 15 -19 8 -3 15 -10 15
-16 0 -6 29 -40 65 -77 36 -37 65 -70 65 -75 0 -4 4 -8 8 -8 8 0 21 -10 82
-63 14 -13 48 -38 75 -57 28 -19 52 -37 55 -40 22 -22 240 -126 315 -150 39
-12 77 -25 85 -28 8 -3 26 -7 40 -9 14 -2 39 -8 57 -14 17 -5 49 -11 71 -13
21 -2 44 -6 50 -10 7 -4 12 -1 12 6 0 9 3 10 8 2 7 -12 65 -16 187 -15 70 0
96 3 190 17 28 4 60 8 73 8 12 1 22 3 22 6 0 3 12 7 26 8 14 1 31 5 37 9 7 4
20 9 30 10 9 2 43 12 75 24 31 12 67 23 80 26 12 3 22 9 22 14 0 5 7 9 15 9
45 0 306 170 395 256 24 24 48 44 52 44 4 0 8 4 8 8 0 5 21 31 46 58 55 59
124 149 124 163 0 5 4 11 8 13 9 3 103 166 106 183 1 6 10 27 21 49 10 21 18
44 18 52 0 8 4 14 9 14 4 0 7 3 7 8 -1 4 0 9 1 12 2 7 11 41 14 60 2 8 8 28
15 43 6 16 9 33 5 38 -3 5 -1 9 4 9 5 0 9 6 9 13 0 6 3 31 7 53 15 93 20 137
29 261 1 18 -2 35 -8 37 -5 3 -4 5 3 5 7 1 10 6 6 12 -3 6 -8 32 -10 58 -6 75
-11 124 -20 166 -10 52 -11 55 -14 58 -2 3 -10 37 -14 62 -2 11 -5 22 -6 25
-2 3 -4 10 -4 15 -1 6 -8 21 -16 35 -7 14 -13 27 -13 30 1 7 -3 20 -13 45 -4
11 -8 22 -9 25 -6 24 -89 182 -109 209 -14 19 -26 41 -26 49 0 7 -4 10 -10 7
-5 -3 -10 0 -10 7 0 14 -27 51 -77 104 -17 19 -30 34 -28 34 11 0 -173 173
-207 195 -9 6 -35 24 -59 41 -74 53 -260 151 -300 159 -10 2 -26 8 -36 13 -39
21 -222 64 -328 78 -48 6 -253 13 -258 8z m-652 -424 c3 -6 -4 -10 -17 -10
-18 0 -20 2 -8 10 19 12 18 12 25 0z"/>
</g>
</svg>
